<svg width="400" height="400" xmlns="http://www.w3.org/2000/svg">
	<g>
		<title>Layer 1</title>
		<rect id="svg_2" height="400" width="400" y="0" x="0" fill="#fff"/>
		<g id="svg_1">
			<path fill="#1265b6" d="m284.03406,181.27893c0.87,5.18 1.22,10.92 1.22,16.36c0,48.53 -38.53,87.99 -86.53,89.18c0,0 26.44,-11.88 55.22,-49.92c28,-37.13 30.09,-55.62 30.09,-55.62z" class="shp1" id="Path 3"/>
			<path fill="#1265b6" d="m285.05229,104.4207c9.13,7.42 9.13,22.87 -2.87,54.81c-15.21,40.35 -51.13,79.61 -69.14,98.16c-20.26,20.84 -59.48,48.65 -75.66,38.85c-14.88,-9.07 -4.35,-36.26 -3.39,-39.14c8.17,-24.64 29.91,-56.53 32.96,-77.98c3.21,-23.29 -4.35,-29.16 -10.61,-32.42c-3.83,-2 -22.44,-7.78 -37.66,23.31c-15.22,31.07 -1.48,64.86 -1.48,64.86c-5.65,-11.73 -8.78,-24.9 -8.78,-38.82c0,-49.27 39.66,-89.22 88.71,-89.22c15.21,0 29.65,3.9 42.18,10.73c0,0 32.7,-23.64 45.74,-13.14zm-8.95,9.15c-8.35,-9.1 -31.31,7.22 -31.31,7.22c10.52,6.73 19.48,15.68 26.35,26.14c0,0 12.78,-24.77 4.96,-33.36z" class="shp1" fill-rule="evenodd" id="Path 4"/>
		</g>
	</g>
</svg>